<?xml version="1.0" standalone="no"?><!DOCTYPE svg PUBLIC "-//W3C//DTD SVG 1.1//EN" "http://www.w3.org/Graphics/SVG/1.1/DTD/svg11.dtd"><svg t="1702736693331" class="icon" viewBox="0 0 1024 1024" version="1.1" xmlns="http://www.w3.org/2000/svg" p-id="3528" xmlns:xlink="http://www.w3.org/1999/xlink" width="200" height="200"><path d="M671.458277 998.296954c-67.104171 21.858917-134.391047 29.781039-201.867938 23.74444-67.476891-6.02929-130.429987-23.74444-188.866596-53.152759-58.429301-29.401011-110.076565-69.362414-154.934483-119.876902-44.865226-50.514488-78.219989-109.323817-100.086214-176.427988-21.866225-67.096863-29.781039-134.391047-23.751749-201.867938 6.02929-67.476891 23.751749-130.620001 53.160067-189.42933 29.401011-58.809329 69.54512-110.639299 120.432328-155.497217 50.894516-44.865226 109.893859-78.219989 176.99803-100.093523 67.104171-21.858917 134.391047-29.77373 201.867938-23.74444s130.429987 23.934454 188.859288 53.715493c58.43661 29.788347 110.076565 69.932456 154.941791 120.446944 44.857918 50.514488 78.219989 109.323817 100.086214 176.427988 21.866225 67.096863 29.781039 134.383739 23.74444 201.867938-6.021982 67.476891-23.74444 130.429987-53.152759 188.859288-29.401011 58.43661-69.54512 110.076565-120.439636 154.934483C797.561792 943.068657 738.562448 976.430729 671.458277 998.296954M905.562819 380.809957c-18.095178-54.285535-45.245254-101.971738-81.428302-143.058609-36.190357-41.094179-77.839961-73.513489-124.970739-97.265237-47.123469-23.74444-98.010677-38.068572-152.668931-42.972394-54.658255-4.896514-109.133803 1.695509-163.426646 19.790688-54.278227 18.095178-101.964429 45.237946-143.058609 81.428302-41.086871 36.190357-73.506181 77.839961-97.250621 124.96343-23.751749 47.123469-38.265894 98.010677-43.549744 152.67624-5.276542 54.658255 1.132776 109.133803 19.227954 163.419338 18.095178 54.285535 45.237946 101.971738 81.428302 143.065917 36.190357 41.086871 78.029975 73.506181 125.533472 97.257929 47.496189 23.74444 98.580719 38.07588 153.238973 42.972394 54.658255 4.903823 109.133803-1.695509 163.419338-19.790688 54.278227-18.095178 101.971738-45.237946 143.058609-81.428302 41.094179-36.183048 73.513489-77.847269 97.265237-124.96343 23.74444-47.123469 38.068572-98.017985 42.972394-152.67624C930.250021 489.563733 923.657998 435.088184 905.562819 380.809957M628.485883 867.106911c-49.008993 15.829627-98.010677 21.676211-147.019669 17.532445-49.008993-4.151075-94.999686-16.962403-137.97208-38.455908-42.972394-21.486197-80.85826-50.697194-113.657598-87.647606-32.799338-36.943104-57.11382-79.915499-72.943447-128.924491-15.836935-49.001684-21.676211-98.200691-17.532445-147.589711 4.151075-49.374404 16.962403-95.555111 38.455908-138.527506 21.478889-42.979703 50.887208-80.865569 88.21034-113.664906 37.315824-32.792029 80.478232-57.106512 129.487225-72.943447 49.008993-15.829627 98.010677-21.486197 147.019669-16.962403 49.008993 4.523795 94.999686 17.525136 137.97208 39.018642 42.972394 21.486197 80.85826 50.697194 113.657598 87.647606 32.799338 36.943104 57.11382 79.915499 72.943447 128.924491 15.836935 49.008993 21.676211 98.200691 17.532445 147.582403-4.151075 49.381712-16.962403 95.379714-38.455908 137.97208-21.478889 42.599675-50.887208 80.295527-88.21034 113.094864C720.657284 826.955494 677.494876 851.269976 628.485883 867.106911M512 443.010306c-19.607982 0-36.000343 6.599332-49.199007 19.790688-13.191356 13.198664-19.790688 29.591025-19.790688 49.191698 0 19.607982 6.599332 36.197665 19.790688 49.76174 13.198664 13.578692 29.591025 20.36073 49.199007 20.36073 19.600674 0 36.190357-6.782038 49.754432-20.36073 13.578692-13.564075 20.36073-30.153758 20.36073-49.76174 0-19.600674-6.782038-35.993034-20.36073-49.191698C548.190357 449.609638 531.600674 443.010306 512 443.010306M249.627223 329.915441l160.591053 92.741443c3.763739-2.265551 7.534785-4.903823 11.305832-7.922122 3.771047-2.258243 7.35208-4.896514 10.750407-7.914813 3.391019-3.010991 6.972052-5.65657 10.73579-7.914813 9.047589-5.276542 17.71515-9.047589 26.009992-11.305832 4.531103-1.512804 9.054897-2.638271 13.578692-3.398327L482.598989 198.732707c-12.818636 0.752748-26.0173 2.638271-39.588684 5.649262-12.05858 3.018299-25.637272 6.97936-40.706843 11.875874-15.084187 4.903823-31.293842 12.255902-48.636273 22.056239-19.600674 11.313141-36.000343 22.428959-49.191698 33.362071-13.198664 10.933113-23.941763 20.543435-32.236604 28.838277C263.198607 310.314768 255.656513 320.115105 249.627223 329.915441M221.35168 645.448286l161.716521-92.741443c-1.505495-4.516486-2.630963-9.047589-3.383711-13.564075-0.760056-3.771047-1.32279-7.914813-1.702818-12.445916-0.37272-4.516486-0.562734-9.047589-0.562734-13.564075 0-10.560393 1.132776-19.98801 3.391019-28.282851 0.752748-4.516486 1.885523-9.040281 3.391019-13.564075L224.742699 378.551714c-5.276542 10.553085-10.173057 22.611665-14.696851 36.183048-3.771047 11.313141-7.35208 25.074538-10.750407 41.276885-3.391019 16.216963-5.086528 34.122127-5.086528 53.722801-0.752748 22.618973 0.37272 42.409661 3.398327 59.379371 3.010991 16.962403 6.40201 31.09652 10.173057 42.402352C211.551343 625.094864 216.075138 636.400697 221.35168 645.448286M481.466214 827.525536l1.132776-186.601045c-4.523795-0.752748-9.047589-2.265551-13.578692-4.523795-8.294841-2.265551-16.202347-6.036598-23.74444-11.305832-4.523795-2.265551-8.667561-4.903823-12.445916-7.922122-3.763739-3.010991-7.162066-6.02929-10.173057-9.047589-3.010991-3.018299-6.409318-6.02929-10.180365-9.047589L253.018242 690.686231c6.782038 10.553085 14.704159 21.106169 23.751749 31.659254 8.294841 9.047589 18.467898 18.847926 30.526478 29.408319 12.073196 10.553085 26.770048 21.106169 44.112478 31.666562 18.847926 11.313141 36.373062 19.980702 52.582717 26.009992 16.216963 6.02929 29.971053 10.560393 41.284193 13.571384C458.847241 826.012732 470.913129 827.525536 481.466214 827.525536M773.240001 696.335493 612.648948 603.601359c-3.763739 3.018299-7.162066 6.036598-10.180365 9.047589-3.010991 2.265551-6.409318 4.713809-10.173057 7.35208-3.771047 2.638271-7.542094 5.093837-11.305832 7.35208-4.531103 3.010991-9.237603 5.276542-14.141426 6.782038-4.896514 1.512804-9.237603 3.018299-13.00865 4.523795-4.516486 1.512804-8.667561 2.645579-12.438608 3.398327l0 185.468269c12.065888-0.752748 24.884524-2.638271 38.4486-5.65657 12.065888-2.258243 25.827286-6.02929 41.284193-11.305832s31.856576-12.818636 49.191698-22.618973c19.600674-10.553085 35.817637-21.303491 48.636273-32.229296 12.811328-10.940421 23.371721-20.923463 31.666562-29.971053C759.675926 715.936167 767.218019 706.13583 773.240001 696.335493M801.515544 378.551714 640.924491 471.285849l2.265551 13.564075c0.752748 3.778355 1.315481 8.112136 1.695509 13.00865 0.37272 4.903823 0.562734 9.237603 0.562734 13.00865 0 5.276542-0.380028 10.560393-1.132776 15.829627-0.752748 5.283851-1.505495 9.800337-2.258243 13.571384-1.505495 4.523795-2.645579 9.047589-3.398327 13.571384l159.465586 91.608667c5.276542-10.560393 10.173057-22.618973 14.704159-36.190357 3.763739-11.305832 7.344771-25.074538 10.743099-41.276885 3.391019-16.209655 5.086528-34.122127 5.086528-53.722801 0-21.866225-1.32279-41.466899-3.953753-58.809329-2.645579-17.335122-5.846584-31.666562-9.617631-42.972394C811.315881 398.905136 806.792087 387.599303 801.515544 378.551714M542.533786 196.467156l0 186.601045 13.571384 4.531103c3.771047 1.505495 7.724799 3.201005 11.875874 5.086528 4.143767 1.885523 8.104827 3.961061 11.868566 6.219304 3.778355 3.018299 7.732108 5.839276 11.875874 8.484855 4.151075 2.638271 7.732108 5.466556 10.743099 8.477547l10.180365 10.180365 159.458277-92.741443c-6.782038-9.800337-14.696851-19.973393-23.74444-30.526478-8.294841-9.047589-18.475206-19.045248-30.533786-29.971053-12.065888-10.933113-26.762739-21.676211-44.10517-32.229296-19.607982-11.313141-37.505838-19.790688-53.722801-25.447258-16.209655-5.65657-29.963744-9.997659-41.276885-13.00865C565.152759 199.112735 553.086871 197.219904 542.533786 196.467156" p-id="3529" fill="#2F54EB"></path></svg>