<?xml version="1.0" standalone="no"?><!DOCTYPE svg PUBLIC "-//W3C//DTD SVG 1.1//EN" "http://www.w3.org/Graphics/SVG/1.1/DTD/svg11.dtd"><svg t="1702719607659" class="icon" viewBox="0 0 1024 1024" version="1.1" xmlns="http://www.w3.org/2000/svg" p-id="17070" xmlns:xlink="http://www.w3.org/1999/xlink" width="200" height="200"><path d="M512 961.610044c-248.313435 0-449.610044-201.296609-449.610044-449.610044s201.296609-449.610044 449.610044-449.610044 449.610044 201.296609 449.610044 449.610044S760.312412 961.610044 512 961.610044zM702.282764 330.186118c-7.975649-17.396205-17.156752-32.534997-27.311019-44.874023l-0.001023 0c-31.995715-38.95215-79.368652-39.692001-125.291564-42.159192-32.335453-1.686409-65.375963-1.110287-99.381451 2.140757-34.143635 3.251044-69.651336 8.349155-94.994538 35.127032-40.401152 42.611493-68.109214 130.431631-68.109214 231.904721 0 113.691365 34.831296 210.272028 83.287915 245.316172 19.197224 13.861706 55.819307 19.454074 79.011518 21.636786 31.748075 2.960425 63.735603 2.755764 95.560426 0.656963 43.724851-2.877537 94.04184-3.578502 126.198214-39.733956 11.626805-13.080923 22.078855-29.699416 31.030737-49.236378 21.323655-46.563502 34.521235-110.360504 34.521235-180.367951C736.803999 440.547645 723.606419 376.750643 702.282764 330.186118zM631.686916 654.399197c-1.293459 0-5.328355-11.969613-10.80202-31.30396-8.187473-28.998451-13.258978-69.844741-13.258978-115.624391 0-45.781696 5.072529-86.624916 13.258978-115.624391 5.471618-19.373233 9.507538-31.299867 10.80202-31.299867 1.312902 0 5.351891 11.927657 10.82044 31.299867 8.176217 28.996404 13.247722 69.842695 13.247722 115.624391s-5.071506 86.62594-13.247722 115.624391C637.036761 642.428561 632.998795 654.399197 631.686916 654.399197zM608.195899 733.494627c-23.610744 0-45.991474-23.032576-63.059198-60.299341-18.875906-41.216727-30.552853-98.67844-30.552853-162.598238 0-63.961754 11.676947-121.425514 30.552853-162.640194 17.065677-37.22481 39.447431-60.300364 63.059198-60.300364 14.560624 0 28.653597 8.761548 41.313941 24.228821l0.766456 4.028757c-8.883321-8.843412-18.899442-13.654998-29.857005-13.654998l0 0.002047c-26.14752 0-46.987151 27.432793-59.516512 71.816652-9.80839 34.715663-15.864316 81.936127-15.864316 133.393079 0 51.458999 6.055926 98.677417 15.864316 133.394103 12.530384 44.38079 33.368992 71.818699 59.516512 71.818699 16.508999 0 30.909987-10.943236 42.437531-30.191626l-0.774643 8.43102C646.526903 717.618031 627.78812 733.494627 608.195899 733.494627zM460.594213 308.099077c7.797593-13.284561 16.639982-25.418926 26.584472-36.07359 0.828878-0.902556 1.662873-1.77032 2.508123-2.631944l-0.001023 0 55.648414-2.880607c-9.529027 12.751419-17.98256 26.779923-25.38311 41.750893L460.594213 308.099077zM492.819149 383.988488l-63.146179 0.494257c3.89982-14.685467 8.606005-28.834722 14.115486-42.24515l62.657039-2.671852C501.114069 353.838817 496.578776 368.727922 492.819149 383.988488zM368.675734 336.112084c6.692423-12.257162 14.32117-23.568788 22.953781-33.648354l0-0.001023 46.738487-2.424212c-7.432273 11.270694-14.014178 23.36515-19.814278 36.238342L368.675734 336.112084zM394.532635 413.027871l-53.649897 0.370437c2.973728-13.532201 6.623861-26.613124 11.009751-39.076994l0.001023 0 53.070706-2.261507C400.798339 385.264551 397.337517 398.960481 394.532635 413.027871zM388.385635 453.092355c-1.512447 13.818727-2.456958 27.806299-2.844791 41.831734l-54.325279-1.563612c0.459464-13.450337 1.453095-26.859741 2.995217-39.97955l0 0L388.385635 453.092355zM299.886021 571.883879l0.239454-0.370437 0.039909 0.370437-0.278339 0L299.886021 571.883879zM385.862161 534.12388l0.078795 1.850138c0.61603 13.409404 1.732457 26.7789 3.291976 40.023552l-54.553477-2.51017c-1.500167-12.70844-2.566452-25.584702-3.163039-38.498826l-0.069585-1.523703 0.001023 0.001023L385.862161 534.12388zM405.991618 660.072407l-54.69367-4.975315c-3.910053-13.0799-7.29208-26.738991-10.113335-40.765449l54.533011 3.127224C398.591067 632.022561 402.023236 646.292566 405.991618 660.072407zM437.939237 738.800469l-51.620681-4.689812 0.001023 0c-7.997138-12.299117-15.238053-26.242687-21.643949-41.502229l53.232388 3.085268C423.853427 711.11799 430.547897 725.555817 437.939237 738.800469zM495.41323 640.986723l-64.072271-5.881964c-3.888564-13.985526-7.130398-28.712949-9.676383-43.931558l63.933101 3.662413C488.185618 610.712209 491.466338 626.176412 495.41323 640.986723zM480.425887 552.305985l-63.953567-2.963495c-1.152243-14.026458-1.747807-28.300556-1.787716-42.612517l0.019443-0.453325 63.85226 0.783853 0 0.61603C478.57575 522.649548 479.211223 537.580608 480.425887 552.305985zM484.783125 424.338475c-2.305509 14.892175-3.959172 29.986965-4.983501 45.164642l-63.723324-1.851161c1.055029-14.477736 2.734274-28.873608 5.043876-42.98193L484.783125 424.338475zM526.59951 720.002334l-60.434417-5.553483c-8.850575-12.914124-16.638959-28.05087-23.323195-44.875047l62.571081 3.576455C511.520069 690.138166 518.601348 705.85308 526.59951 720.002334z" fill="#2F54EB" p-id="17071"></path></svg>