<?xml version="1.0" standalone="no"?><!DOCTYPE svg PUBLIC "-//W3C//DTD SVG 1.1//EN" "http://www.w3.org/Graphics/SVG/1.1/DTD/svg11.dtd"><svg t="1702719573082" class="icon" viewBox="0 0 1024 1024" version="1.1" xmlns="http://www.w3.org/2000/svg" p-id="13382" xmlns:xlink="http://www.w3.org/1999/xlink" width="200" height="200"><path d="M424.422769 972.365243L365.433158 938.053762l0.854437 0.485856 59.039871 34.311481-0.854436-0.485856" fill="#9E0000" p-id="13383"></path><path d="M425.277205 972.851099l-59.039871-34.311481a74.872073 74.872073 0 0 0 7.723433 3.803079L433.000639 976.737946a73.230215 73.230215 0 0 1-7.723434-3.803079" fill="#A30000" p-id="13384"></path><path d="M433.000639 976.737946l-59.039872-34.31148a67.349683 67.349683 0 0 0 7.421868 2.613569l59.039872 34.311481a67.349683 67.349683 0 0 1-7.421868-2.61357" fill="#A80000" p-id="13385"></path><path d="M440.422507 979.267748L381.382635 944.906006a64.384287 64.384287 0 0 0 7.271086 1.675365l59.039871 34.311481a64.384287 64.384287 0 0 1-7.271085-1.675365" fill="#AD0000" p-id="13386"></path><path d="M447.693592 980.959866L388.653721 946.581371a71.621865 71.621865 0 0 0 7.354853 0.87119L455.048446 981.764042a71.621865 71.621865 0 0 1-7.354854-0.87119" fill="#B30000" p-id="13387"></path><path d="M455.048446 981.764042l-59.039872-34.311481a73.146447 73.146447 0 0 0 7.673173 0L462.721619 981.764042a73.146447 73.146447 0 0 1-7.673173 0" fill="#B80000" p-id="13388"></path><path d="M462.721619 981.898071l-59.039872-34.31148a75.843785 75.843785 0 0 0 8.376826-0.837683l59.039872 34.31148a75.843785 75.843785 0 0 1-8.376826 0.837683" fill="#BD0000" p-id="13389"></path><path d="M471.098445 981.060388l-59.039872-34.31148a89.380737 89.380737 0 0 0 9.650104-2.043946l59.039872 34.294727a85.644672 85.644672 0 0 1-9.650104 2.060699" fill="#C20000" p-id="13390"></path><path d="M480.748549 978.999689l-59.039872-34.294727a107.457928 107.457928 0 0 0 13.034342-4.489979l59.039872 34.311481a104.492531 104.492531 0 0 1-13.034342 4.473225" fill="#C70000" p-id="13391"></path><path d="M493.782891 974.526464l-59.039872-34.311481a139.356882 139.356882 0 0 0 16.318058-8.125521 212.201764 212.201764 0 0 0 42.922858-33.004696L553.074067 933.396247a212.201764 212.201764 0 0 1-42.922858 33.004695 140.730682 140.730682 0 0 1-16.318057 8.125522" fill="#CC0000" p-id="13392"></path><path d="M553.074067 933.396247l-59.039871-34.311481c4.473225-4.422964 8.845929-9.063726 13.101356-13.972546l59.039872 34.311481q-6.383142 7.3381-13.101357 13.972546" fill="#C70000" p-id="13393"></path><path d="M566.125163 919.423701l-59.039872-34.311481q5.026096-5.830271 9.95167-12.129644l59.039871 34.31148q-4.875313 6.28262-9.951669 12.129645" fill="#C20000" p-id="13394"></path><path d="M576.076832 907.294056l-59.039871-34.31148q4.372703-5.629227 8.594623-11.727557l59.039872 34.31148c-2.814614 4.020877-5.679488 7.89097-8.594624 11.727557" fill="#BD0000" p-id="13395"></path><path d="M584.671456 895.633514l-59.039872-34.311481c2.714092-3.85334 5.361169-7.807202 7.974739-11.895093l59.039872 34.311481c-2.61357 4.087891-5.260647 8.041753-7.974739 11.895093" fill="#B80000" p-id="13396"></path><path d="M592.646195 883.738421L533.606323 849.410186q3.903601-6.09833 7.673173-12.565239L600.319368 871.189935q-3.769572 6.450156-7.673173 12.565239" fill="#B30000" p-id="13397"></path><path d="M600.319368 871.189935L541.34651 836.861701q3.870094-6.701461 7.622912-13.704488l59.039872 34.31148q-3.752818 7.036534-7.622912 13.704488" fill="#AD0000" p-id="13398"></path><path d="M607.942279 857.468693l-59.039871-34.31148q3.953862-7.438622 7.740187-15.296085l59.039872 34.31148q-3.786325 7.857463-7.740188 15.296085" fill="#A80000" p-id="13399"></path><path d="M615.682467 842.172608l-59.039872-34.31148q4.171659-8.678392 8.159029-17.859394L623.841496 824.279707q-3.970616 9.181002-8.159029 17.859394" fill="#A30000" p-id="13400"></path><path d="M623.841496 824.279707L564.801624 790.001734q4.506733-10.353757 8.711899-21.344153l59.039872 34.31148q-4.22192 10.990396-8.711899 21.344154" fill="#9E0000" p-id="13401"></path><path d="M632.553395 802.969061L573.513523 768.657581q1.541336-3.970616 3.032412-8.025l59.039871 34.311481q-1.507829 4.054384-3.032411 8.024999" fill="#990000" p-id="13402"></path><path d="M635.585806 794.944062L576.529181 760.615828c1.55809-4.272181 3.099426-8.628131 4.573747-13.101357L640.193061 781.842705c-1.474321 4.473225-3.015657 8.829175-4.573747 13.101357" fill="#990000" p-id="13403"></path><path d="M640.193061 781.842705l-59.039872-34.31148q4.087891-12.24692 7.773695-25.482306l59.039872 34.311481q-3.702557 13.252139-7.773695 25.482305" fill="#940000" p-id="13404"></path><path d="M647.933248 756.3604L588.893376 722.082427q5.026096-18.294989 9.382046-38.533401l59.039872 34.294727q-4.305689 20.104383-9.382046 38.533401" fill="#8F0000" p-id="13405"></path><path d="M657.315294 717.894014L598.308929 683.549026q7.120302-33.423537 12.129645-72.040706l59.039871 34.31148q-5.026096 38.533401-12.129644 72.040706" fill="#8A0000" p-id="13406"></path><path d="M669.444938 645.886815L610.405066 611.50832q12.079384-93.418367 11.727557-217.22786Q621.596506 201.931775 581.672552 107.223377q-15.899216-37.762733-40.208766-51.936323l59.039872 34.294726q24.376565 14.17359 40.292534 51.936323 39.823432 94.708398 40.393057 287.140852 0.351827 123.809493-11.727557 217.22786" fill="#850000" p-id="13407"></path><path d="M364.863534 1007.547913l-59.039872-34.31148a166.715597 166.715597 0 0 1-38.650676-31.83194Q190.122938 857.585969 189.519806 644.060667a1095.119255 1095.119255 0 0 1 8.795668-143.763093l59.039871 34.31148a1095.119255 1095.119255 0 0 0-8.795667 143.763093q0.603131 213.508549 77.65318 297.36058a167.134438 167.134438 0 0 0 38.650676 31.83194" fill="#850000" p-id="13408"></path><path d="M257.355345 534.609054L198.315474 500.297574q5.026096-39.404591 13.185124-77.217585L270.54047 457.374716q-8.058507 37.829748-13.185125 77.217585" fill="#8A0000" p-id="13409"></path><path d="M270.54047 457.374716l-59.039872-34.294727q5.78001-27.040395 13.067849-53.259862l59.039872 34.311481q-7.287839 26.219466-13.067849 53.259861" fill="#8F0000" p-id="13410"></path><path d="M283.608319 404.131608l-59.039872-34.311481q5.930793-21.360907 12.883559-42.185697L296.491878 361.878896q-6.969519 20.808037-12.883559 42.185697" fill="#940000" p-id="13411"></path><path d="M296.491878 361.878896l-59.039872-34.244466q6.081576-18.294989 12.967327-36.18789l59.039872 34.311481Q302.606961 343.634168 296.491878 361.878896" fill="#990000" p-id="13412"></path><path d="M309.459205 325.758021L250.419333 291.513555q4.892067-12.74953 10.202975-25.264508c1.005219-2.379019 2.010438-4.758037 3.049164-7.120302l59.039872 34.244466c-1.038726 2.362265-2.043946 4.72453-3.049165 7.120302q-5.310908 12.531732-10.202974 25.264508" fill="#9E0000" p-id="13413"></path><path d="M322.711344 293.373211l-59.039872-34.311481Q269.937338 244.51956 276.638799 230.764811l59.039872 34.31148q-6.701461 13.754749-12.93382 28.29692" fill="#A30000" p-id="13414"></path><path d="M335.645164 265.076291L276.638799 230.764811q6.031315-12.565239 12.364196-24.460333l59.006365 34.311481q-6.299373 11.911847-12.364196 24.460332" fill="#A80000" p-id="13415"></path><path d="M348.00936 240.615959l-59.039872-34.311481q5.981054-11.208194 12.179905-21.88027l59.039872 34.31148q-6.198851 10.655323-12.179905 21.880271" fill="#AD0000" p-id="13416"></path><path d="M360.189265 218.735688l-59.039872-34.31148q6.064822-10.353757 12.313935-20.104383l59.039872 34.294726q-6.249112 9.834394-12.313935 20.104384" fill="#B30000" p-id="13417"></path><path d="M372.5032 198.564291L313.496835 164.269564q6.28262-9.851148 12.816544-19.149425l59.039872 34.31148q-6.533925 9.298277-12.816544 19.132672" fill="#B80000" p-id="13418"></path><path d="M385.319744 179.431619L326.279872 145.120139q6.83549-9.750626 13.922285-18.881367l59.039872 34.294727q-7.086795 9.147494-13.922285 18.89812" fill="#BD0000" p-id="13419"></path><path d="M399.242029 160.533499L340.202157 126.238772q7.924478-10.202974 16.133768-19.652034l59.039872 34.31148q-8.226043 9.44906-16.133768 19.635281" fill="#C20000" p-id="13420"></path><path d="M415.375797 140.898218L356.335925 106.586738q10.454279-12.012369 21.411168-22.835229l59.039872 34.311481Q425.746308 128.869096 415.375797 140.898218" fill="#C70000" p-id="13421"></path><path d="M436.786965 118.06299L377.747093 83.768263a350.151339 350.151339 0 0 1 70.750675-54.382356 272.514913 272.514913 0 0 1 31.83194-15.882463l59.039871 34.31148a272.514913 272.514913 0 0 0-31.831939 15.882463 350.151339 350.151339 0 0 0-70.750675 54.382356" fill="#CC0000" p-id="13422"></path><path d="M539.436594 47.798171L480.396722 13.48669A193.990543 193.990543 0 0 1 504.488475 5.210386l58.972857 34.294727a196.972694 196.972694 0 0 0-24.024738 8.376826" fill="#C70000" p-id="13423"></path><path d="M563.461332 39.505113L504.488475 5.210386A155.088562 155.088562 0 0 1 521.543693 1.55809l59.039872 34.294727a159.042424 159.042424 0 0 0-17.122233 3.652296" fill="#C20000" p-id="13424"></path><path d="M580.583565 35.852817L521.543693 1.55809a130.67849 130.67849 0 0 1 14.35788-1.440814L594.958199 34.428756a134.732874 134.732874 0 0 0-14.357881 1.424061" fill="#BD0000" p-id="13425"></path><path d="M594.958199 34.428756L535.901573 0.117276a119.185485 119.185485 0 0 1 12.732776 0.117275l59.039872 34.311481a119.185485 119.185485 0 0 0-12.732776-0.117276" fill="#B80000" p-id="13426"></path><path d="M607.674221 34.546032L548.634349 0.234551a109.619149 109.619149 0 0 1 11.828079 1.390553l59.039872 34.311481a109.619149 109.619149 0 0 0-11.828079-1.390553" fill="#B30000" p-id="13427"></path><path d="M619.5023 35.936585L560.462428 1.675365a104.056936 104.056936 0 0 1 11.392484 2.630324L630.894784 38.533401a104.056936 104.056936 0 0 0-11.392484-2.630323" fill="#AD0000" p-id="13428"></path><path d="M630.894784 38.533401L571.854912 4.255428a104.140705 104.140705 0 0 1 11.241701 3.970615l59.039871 34.311481a104.140705 104.140705 0 0 0-11.2417-4.004123" fill="#A80000" p-id="13429"></path><path d="M642.136484 42.537524L583.096613 8.226043a108.781466 108.781466 0 0 1 11.409237 5.59572L653.595983 48.133244a108.781466 108.781466 0 0 0-11.409238-5.59572" fill="#A30000" p-id="13430"></path><path d="M653.595983 48.133244L594.50585 13.821763l1.256524 0.720407 59.039872 34.311481-1.256524-0.720407" fill="#9E0000" p-id="13431"></path><path d="M698.479018 89.799578q70.097282 95.8644 70.717168 288.012042 0.603131 218.869717-73.397752 387.243926T510.184717 997.814041q-106.938564 61.73721-183.971859-22.081314T248.559678 678.372147q-0.586378-208.214394 71.102501-377.878634T507.53764 63.66388Q628.465504-6.081576 698.479018 89.799578z m-62.893212 705.144484q46.273588-125.786424 45.603443-366.285107-0.552871-192.432454-40.476825-287.124098T507.638161 100.521916Q428.460399 146.292894 382.186811 280.07081T336.516354 627.658841q0.653392 229.793099 49.842116 305.80442t123.742478 32.937681q79.161008-45.687211 125.484858-171.45688" fill="#FFCC00" p-id="13432"></path></svg>