<?xml version="1.0" standalone="no"?><!DOCTYPE svg PUBLIC "-//W3C//DTD SVG 1.1//EN" "http://www.w3.org/Graphics/SVG/1.1/DTD/svg11.dtd"><svg t="1702863520981" class="icon" viewBox="0 0 1024 1024" version="1.1" xmlns="http://www.w3.org/2000/svg" p-id="2183" xmlns:xlink="http://www.w3.org/1999/xlink" width="200" height="200"><path d="M512 1024a512 512 0 1 1 512-512 512 512 0 0 1-512 512z m0-857.603171a343.024358 343.024358 0 1 0 343.024358 343.024358 343.024358 343.024358 0 0 0-343.024358-342.855255z m1.268269 660.471968a313.600528 313.600528 0 1 1 313.811906-313.642804 313.600528 313.600528 0 0 1-313.811906 313.642804z m202.288828-155.278342l-157.053918-83.494344c-1.479647 0.887788-3.08612 1.606473-4.608042 2.40971l-7.82099 178.825861a258.304021 258.304021 0 0 0 169.525225-97.741227z m-238.603584 97.741227l-6.299067-178.74131c-0.845512-0.465032-1.564198-1.014615-2.40971-1.479646l-160.30914 83.409793a258.430848 258.430848 0 0 0 169.102469 96.811163z m-204.444884-355.115185a256.655272 256.655272 0 0 0-0.253654 197.131203l151.304434-94.570555c0-1.564198-0.338205-3.043844-0.338205-4.608043v-1.775575z m34.835108-59.693171l156.84254 83.367517c1.860127-1.183717 3.635703-2.494261 5.580381-3.551152l7.778714-177.557592a258.473124 258.473124 0 0 0-170.201635 97.656676z m204.909917 108.352407a51.153497 51.153497 0 1 0 51.153497 51.153497 51.153497 51.153497 0 0 0-51.068946-50.984395z m34.62373-205.713154l6.17224 176.247049c2.367435 1.225993 4.565767 2.663364 6.764099 4.227561l156.631162-81.50739a258.59995 258.59995 0 0 0-169.525225-98.798117z m223.088432 255.936587a257.204855 257.204855 0 0 0-18.558996-96.007927l-150.120716 93.851871v1.225992c0 1.521922-0.380481 2.917018-0.465032 4.227562l149.486582 95.246966a257.881265 257.881265 0 0 0 19.615887-98.713566z m0 0" fill="#2f54eb" p-id="2184"></path></svg>